# xmcd
#
# Track frame offsets: 
#        150
#        17727
#        45087
#
# Disc length: 3226 seconds
#
# Revision: 0
# Processed by: cddbd v1.5.2PL0 Copyright (c) Steve Scherf et al.
# Submitted via: ExactAudioCopy v1.0b2
#
DISCID=140c9803
DTITLE=Nicole Renée - Strawberry
DYEAR=1998
DGENRE=R&B
TTITLE0=album version
TTITLE1=Yea Yea Yea
TTITLE2=Music Video
EXTD=
EXTT0=
EXTT1=
EXTT2=
PLAYORDER=
